<?xml version="1.0"?>
<svg width="2880" height="1620" xmlns="http://www.w3.org/2000/svg" xmlns:svg="http://www.w3.org/2000/svg" xmlns:xlink="http://www.w3.org/1999/xlink">
 <!-- Created with SVG-edit - http://svg-edit.googlecode.com/ -->
 <defs>
  <symbol id="svg_8" height="328.56" width="1000" xmlns="http://www.w3.org/2000/svg" xmlns:svg="http://www.w3.org/2000/svg">
   <path id="svg_7" fill="#4285f4" d="m246.110001,116.18l-116.570007,0l0,34.590996l82.673004,0c-4.084198,48.505997 -44.440002,69.192001 -82.533005,69.192001c-48.735992,0 -91.263992,-38.345993 -91.263992,-92.091995c0,-52.357002 40.540001,-92.679001 91.371002,-92.679001c39.216995,0 62.326004,25 62.326004,25l24.219986,-25.081001s-31.08699,-34.608 -87.783981,-34.608c-72.197002,-0.001 -128.050011,60.933001 -128.050011,126.749998c0,64.492989 52.538998,127.379997 129.890008,127.379997c68.030991,0 117.829987,-46.604004 117.829987,-115.519989c0,-14.539009 -2.110901,-22.942009 -2.110901,-22.942009l0.001907,0.009003z"/>
   <path id="svg_6" fill="#ea4335" d="m341.600006,91.128998c-47.832001,0 -82.110992,37.395004 -82.110992,81.007996c0,44.258011 33.248993,82.348007 82.672974,82.348007c44.742004,0 81.397034,-34.197006 81.397034,-81.397003c0,-54.098 -42.638,-81.959 -81.959015,-81.959zm0.475647,32.083c23.521973,0 45.811981,19.017006 45.811981,49.659996c0,29.993011 -22.195007,49.552002 -45.919983,49.552002c-26.068024,0 -46.633026,-20.877991 -46.633026,-49.789993c0,-28.292007 20.310028,-49.422012 46.741028,-49.422012l0,0.000008z"/>
   <path id="svg_5" fill="#fbbc05" d="m520.179993,91.128998c-47.832001,0 -82.110992,37.395004 -82.110992,81.007996c0,44.258011 33.248993,82.348007 82.673004,82.348007c44.742004,0 81.396973,-34.197006 81.396973,-81.397003c0,-54.098 -42.638,-81.959 -81.958984,-81.959zm0.475647,32.083c23.521973,0 45.811951,19.017006 45.811951,49.659996c0,29.993011 -22.195007,49.552002 -45.919983,49.552002c-26.067993,0 -46.632996,-20.877991 -46.632996,-49.789993c0,-28.292007 20.309998,-49.422012 46.741028,-49.422012l0,0.000008z"/>
   <path id="svg_4" fill="#4285f4" d="m695.340027,91.214996c-43.903992,0 -78.414001,38.453003 -78.414001,81.613007c0,49.162994 40.008972,81.764984 77.656982,81.764984c23.278992,0 35.656982,-9.240494 44.796021,-19.847l0,16.106018c0,28.180008 -17.109985,45.055008 -42.936035,45.055008c-24.948975,0 -37.462952,-18.551025 -41.811951,-29.078003l-31.391052,13.122986c11.136047,23.546997 33.554016,48.102997 73.463013,48.102997c43.652039,0 76.921997,-27.494995 76.921997,-85.158997l0,-146.769997l-34.244995,0l0,13.835999c-10.529968,-11.347 -24.929993,-18.744995 -44.039978,-18.744995l0,-0.002007zm3.177979,32.018005c21.525024,0 43.628052,18.380005 43.628052,49.768005c0,31.903992 -22.05603,49.487 -44.104004,49.487c-23.406006,0 -45.185059,-19.005005 -45.185059,-49.184006c0,-31.358002 22.619019,-50.070999 45.660034,-50.070999l0.000977,0z"/>
   <path id="svg_3" fill="#ea4335" d="m925.890015,91.019997c-41.414001,0 -76.187012,32.950005 -76.187012,81.57c0,51.446991 38.759033,81.959 80.165039,81.959c34.557983,0 55.768005,-18.905991 68.425964,-35.845001l-28.234985,-18.787003c-7.326782,11.371002 -19.575989,22.483994 -40.018005,22.483994c-22.961975,0 -33.52002,-12.57399 -40.060974,-24.753998l109.519958,-45.444l-5.685852,-13.317993c-10.580017,-26.080002 -35.26001,-47.860008 -67.920044,-47.860008l-0.004089,-0.00499zm1.426819,31.413002c14.922974,0 25.662964,7.934204 30.223999,17.447006l-73.139038,30.569992c-3.153198,-23.666992 19.269043,-48.016998 42.915039,-48.016998z"/>
   <path id="svg_2" fill="#34a853" d="m797.48999,249.699997l35.974976,0l0,-240.749997l-35.974976,0l0,240.749997z"/>
  </symbol>
 </defs>
 <g>
  <title>Layer 1</title>
  <g id="svg_10"/>
  <g id="svg_12">
   <g stroke="null" id="svg_13">
    <use stroke="null" opacity="0.2" x="820.287119" y="1067.445811" transform="matrix(2.1204601512841785,0,0,2.1204601512841785,-1612.429482055618,-1825.448659375846) " xlink:href="#svg_8" id="svg_9"/>
    <text stroke="#000000" transform="matrix(18.988442007344137,0,0,18.988442007344137,-4470.846343347732,-4464.436919384756) " xml:space="preserve" text-anchor="middle" font-family="Sans-serif" font-size="24" id="svg_11" y="286.486029" x="368.126144" opacity="0.2" stroke-width="0" fill="#7f0000">.rs</text>
   </g>
  </g>
 </g>
</svg>