<?xml version="1.0" encoding="UTF-8"?>

<svg version="1.2" baseProfile="tiny" width="50.8mm" height="50.8mm" viewBox="0 0 5080 5080" preserveAspectRatio="xMidYMid" fill-rule="evenodd" clip-path="url(#presentation_clip_path)" stroke-width="28.222" stroke-linejoin="round" xmlns="http://www.w3.org/2000/svg" xmlns:ooo="http://xml.openoffice.org/svg/export" xmlns:xlink="http://www.w3.org/1999/xlink" xml:space="preserve">
 <defs class="ClipPathGroup">
  <clipPath id="presentation_clip_path" clipPathUnits="userSpaceOnUse">
   <rect x="0" y="0" width="5080" height="5080"/>
  </clipPath>
 </defs>
 <defs class="TextShapeIndex">
  <g ooo:slide="id1" ooo:id-list="id3 id4"/>
 </defs>
 <defs class="EmbeddedBulletChars">
  <g id="bullet-char-template(57356)" transform="scale(0.00048828125,-0.00048828125)">
   <path d="M 580,1141 L 1163,571 580,0 -4,571 580,1141 Z"/>
  </g>
  <g id="bullet-char-template(57354)" transform="scale(0.00048828125,-0.00048828125)">
   <path d="M 8,1128 L 1137,1128 1137,0 8,0 8,1128 Z"/>
  </g>
  <g id="bullet-char-template(10146)" transform="scale(0.00048828125,-0.00048828125)">
   <path d="M 174,0 L 602,739 174,1481 1456,739 174,0 Z M 1358,739 L 309,1346 659,739 1358,739 Z"/>
  </g>
  <g id="bullet-char-template(10132)" transform="scale(0.00048828125,-0.00048828125)">
   <path d="M 2015,739 L 1276,0 717,0 1260,543 174,543 174,936 1260,936 717,1481 1274,1481 2015,739 Z"/>
  </g>
  <g id="bullet-char-template(10007)" transform="scale(0.00048828125,-0.00048828125)">
   <path d="M 0,-2 C -7,14 -16,27 -25,37 L 356,567 C 262,823 215,952 215,954 215,979 228,992 255,992 264,992 276,990 289,987 310,991 331,999 354,1012 L 381,999 492,748 772,1049 836,1024 860,1049 C 881,1039 901,1025 922,1006 886,937 835,863 770,784 769,783 710,716 594,584 L 774,223 C 774,196 753,168 711,139 L 727,119 C 717,90 699,76 672,76 641,76 570,178 457,381 L 164,-76 C 142,-110 111,-127 72,-127 30,-127 9,-110 8,-76 1,-67 -2,-52 -2,-32 -2,-23 -1,-13 0,-2 Z"/>
  </g>
  <g id="bullet-char-template(10004)" transform="scale(0.00048828125,-0.00048828125)">
   <path d="M 285,-33 C 182,-33 111,30 74,156 52,228 41,333 41,471 41,549 55,616 82,672 116,743 169,778 240,778 293,778 328,747 346,684 L 369,508 C 377,444 397,411 428,410 L 1163,1116 C 1174,1127 1196,1133 1229,1133 1271,1133 1292,1118 1292,1087 L 1292,965 C 1292,929 1282,901 1262,881 L 442,47 C 390,-6 338,-33 285,-33 Z"/>
  </g>
  <g id="bullet-char-template(9679)" transform="scale(0.00048828125,-0.00048828125)">
   <path d="M 813,0 C 632,0 489,54 383,161 276,268 223,411 223,592 223,773 276,916 383,1023 489,1130 632,1184 813,1184 992,1184 1136,1130 1245,1023 1353,916 1407,772 1407,592 1407,412 1353,268 1245,161 1136,54 992,0 813,0 Z"/>
  </g>
  <g id="bullet-char-template(8226)" transform="scale(0.00048828125,-0.00048828125)">
   <path d="M 346,457 C 273,457 209,483 155,535 101,586 74,649 74,723 74,796 101,859 155,911 209,963 273,989 346,989 419,989 480,963 531,910 582,859 608,796 608,723 608,648 583,586 532,535 482,483 420,457 346,457 Z"/>
  </g>
  <g id="bullet-char-template(8211)" transform="scale(0.00048828125,-0.00048828125)">
   <path d="M -4,459 L 1135,459 1135,606 -4,606 -4,459 Z"/>
  </g>
 </defs>
 <defs class="TextEmbeddedBitmaps"/>
 <g>
  <g id="id2" class="Master_Slide">
   <g id="bg-id2" class="Background"/>
   <g id="bo-id2" class="BackgroundObjects"/>
  </g>
 </g>
 <g class="SlideGroup">
  <g>
   <g id="id1" class="Slide" clip-path="url(#presentation_clip_path)">
    <g class="Page">
     <g class="com.sun.star.drawing.ClosedBezierShape">
      <g id="id3">
       <path fill="rgb(0,0,0)" stroke="none" d="M 5015,2479 L 4804,2349 C 4802,2328 4800,2308 4798,2287 L 4979,2118 C 4997,2101 5006,2076 5001,2051 4996,2027 4979,2006 4955,1997 L 4724,1911 C 4718,1891 4712,1871 4706,1851 L 4850,1651 C 4865,1630 4868,1604 4858,1581 4848,1558 4828,1541 4803,1537 L 4559,1497 C 4549,1479 4539,1460 4529,1442 L 4632,1217 C 4642,1194 4640,1168 4626,1147 4612,1126 4589,1114 4563,1115 L 4316,1123 C 4303,1107 4290,1092 4277,1076 L 4334,835 C 4339,810 4332,785 4314,767 4297,749 4271,742 4246,748 L 4005,804 C 3990,791 3974,778 3958,765 L 3966,518 C 3967,493 3955,469 3934,455 3913,441 3887,439 3864,449 L 3639,552 C 3621,542 3603,532 3584,522 L 3544,278 C 3540,254 3524,233 3501,223 3477,213 3451,216 3430,231 L 3230,375 C 3210,369 3190,363 3170,357 L 3084,126 C 3075,102 3055,85 3030,80 3005,75 2980,84 2963,102 L 2794,283 C 2774,281 2753,279 2733,277 L 2602,66 C 2589,45 2566,32 2541,32 2516,32 2492,45 2479,66 L 2349,277 C 2328,279 2308,281 2287,283 L 2118,102 C 2101,84 2076,75 2051,80 2027,85 2006,102 1997,126 L 1911,357 C 1891,363 1871,369 1851,375 L 1651,231 C 1630,216 1604,213 1581,223 1557,233 1541,254 1537,278 L 1497,522 C 1479,532 1460,542 1442,552 L 1217,449 C 1194,439 1168,441 1147,455 1126,469 1114,493 1115,518 L 1123,765 C 1107,778 1091,791 1076,804 L 835,748 C 810,742 784,749 767,767 749,785 742,810 747,835 L 804,1076 C 791,1092 778,1107 765,1123 L 518,1115 C 493,1114 469,1126 455,1147 441,1168 439,1194 449,1217 L 552,1442 C 542,1460 532,1479 522,1497 L 278,1537 C 254,1541 233,1557 223,1581 213,1604 216,1630 231,1651 L 375,1851 C 369,1871 363,1891 357,1911 L 126,1997 C 102,2006 85,2027 80,2051 75,2076 84,2101 102,2118 L 283,2287 C 281,2308 279,2328 277,2349 L 66,2479 C 45,2492 32,2515 32,2541 32,2566 45,2589 66,2602 L 277,2733 C 279,2753 281,2774 283,2794 L 102,2963 C 84,2980 75,3005 80,3030 85,3055 102,3075 126,3084 L 357,3170 C 363,3190 369,3210 375,3230 L 231,3430 C 216,3451 213,3477 223,3501 233,3524 254,3540 278,3544 L 522,3584 C 532,3603 542,3621 552,3639 L 449,3864 C 439,3887 441,3913 455,3934 469,3955 493,3967 518,3966 L 765,3958 C 778,3974 791,3990 804,4005 L 747,4247 C 742,4271 749,4297 767,4314 784,4332 810,4339 835,4334 L 1076,4277 C 1091,4290 1107,4303 1123,4316 L 1115,4563 C 1114,4589 1126,4612 1147,4626 1168,4640 1194,4642 1217,4632 L 1442,4529 C 1460,4539 1479,4549 1497,4559 L 1537,4803 C 1541,4828 1557,4849 1581,4858 1604,4868 1630,4865 1651,4850 L 1851,4706 C 1871,4712 1891,4718 1911,4724 L 1997,4955 C 2006,4979 2027,4996 2051,5001 2076,5006 2101,4997 2118,4979 L 2287,4798 C 2308,4800 2328,4802 2349,4804 L 2479,5015 C 2492,5036 2515,5049 2541,5049 2566,5049 2589,5036 2602,5015 L 2733,4804 C 2753,4802 2774,4800 2794,4798 L 2963,4979 C 2980,4997 3005,5006 3030,5001 3055,4996 3075,4979 3084,4955 L 3170,4724 C 3190,4718 3210,4712 3230,4706 L 3430,4850 C 3451,4865 3477,4868 3501,4858 3524,4849 3540,4827 3544,4803 L 3584,4559 C 3603,4549 3621,4539 3639,4529 L 3864,4632 C 3887,4642 3913,4640 3934,4626 3955,4612 3967,4589 3966,4563 L 3958,4316 C 3974,4303 3990,4290 4005,4277 L 4246,4334 C 4271,4339 4297,4332 4314,4314 4332,4297 4339,4271 4334,4247 L 4277,4005 C 4290,3990 4303,3974 4316,3958 L 4563,3966 C 4588,3967 4612,3955 4626,3934 4640,3913 4642,3887 4632,3864 L 4529,3639 C 4539,3621 4549,3603 4559,3584 L 4803,3544 C 4828,3540 4848,3524 4858,3501 4868,3477 4865,3451 4850,3430 L 4706,3230 C 4712,3210 4718,3190 4724,3170 L 4955,3084 C 4979,3075 4996,3055 5001,3030 5006,3005 4997,2980 4979,2963 L 4798,2794 C 4800,2774 4802,2753 4804,2733 L 5015,2602 C 5036,2589 5049,2566 5049,2541 5049,2516 5036,2492 5015,2479 Z M 3605,4226 C 3525,4209 3473,4130 3491,4049 3508,3968 3587,3917 3668,3934 3748,3952 3799,4031 3782,4112 3765,4192 3685,4243 3605,4226 Z M 3533,3742 C 3460,3726 3388,3773 3372,3847 L 3297,4196 C 3067,4300 2810,4359 2540,4359 2264,4359 2003,4298 1768,4188 L 1693,3839 C 1677,3766 1605,3719 1532,3735 L 1224,3801 C 1167,3742 1113,3679 1064,3613 L 2563,3613 C 2580,3613 2592,3610 2592,3595 L 2592,3065 C 2592,3049 2580,3046 2563,3046 L 2125,3046 2125,2710 2599,2710 C 2642,2710 2831,2722 2891,2963 2910,3037 2951,3277 2979,3354 3007,3441 3122,3613 3244,3613 L 3991,3613 C 4000,3613 4009,3612 4018,3611 3967,3681 3910,3748 3849,3810 L 3533,3742 Z M 1460,4219 C 1380,4236 1301,4185 1283,4104 1266,4024 1317,3944 1398,3927 1478,3910 1557,3961 1575,4042 1592,4122 1541,4202 1460,4219 Z M 892,1913 C 925,1988 891,2077 816,2110 741,2143 653,2109 619,2034 586,1959 620,1871 695,1837 770,1804 858,1838 892,1913 Z M 717,2327 L 1038,2185 C 1106,2154 1137,2074 1107,2005 L 1041,1856 1301,1856 1301,3028 776,3028 C 731,2868 706,2699 706,2524 706,2458 710,2392 717,2327 Z M 2125,2214 L 2125,1868 2744,1868 C 2776,1868 2970,1905 2970,2050 2970,2170 2821,2214 2699,2214 L 2125,2214 Z M 4375,2524 C 4375,2570 4373,2616 4370,2661 L 4182,2661 C 4163,2661 4155,2673 4155,2691 L 4155,2778 C 4155,2981 4040,3026 3940,3037 3844,3048 3738,2997 3725,2938 3668,2621 3574,2553 3426,2436 3610,2318 3802,2146 3802,1914 3802,1665 3631,1507 3514,1430 3351,1322 3169,1301 3120,1301 L 1174,1301 C 1438,1006 1796,798 2200,722 L 2430,962 C 2482,1017 2567,1019 2622,967 L 2878,721 C 3416,821 3872,1156 4134,1616 L 3958,2012 C 3928,2081 3959,2161 4027,2192 L 4366,2342 C 4372,2402 4375,2463 4375,2524 Z M 2430,517 C 2489,460 2584,462 2640,522 2697,581 2695,676 2635,733 2576,790 2482,787 2425,728 2368,668 2370,574 2430,517 Z M 4174,1920 C 4207,1845 4295,1811 4370,1844 4445,1878 4479,1966 4446,2041 4413,2117 4325,2151 4249,2117 4174,2084 4140,1996 4174,1920 Z"/>
      </g>
     </g>
     <g class="com.sun.star.drawing.CustomShape">
      <g id="id4">
       <path fill="rgb(197,0,11)" stroke="none" d="M 2214,2324 L 4459,79 4998,618 508,5108 -31,4569 2214,2324 Z"/>
      </g>
     </g>
    </g>
   </g>
  </g>
 </g>
</svg>