<?xml version="1.0" encoding="UTF-8" standalone="no"?>
<!-- Created with Inkscape (http://www.inkscape.org/) -->
<svg
   xmlns:svg="http://www.w3.org/2000/svg"
   xmlns="http://www.w3.org/2000/svg"
   xmlns:xlink="http://www.w3.org/1999/xlink"
   version="1.0"
   width="200"
   height="78.899078"
   id="svg2">
  <defs
     id="defs4">
    <linearGradient
       id="linearGradient14049">
      <stop
         style="stop-color:#000000;stop-opacity:1"
         offset="0"
         id="stop14051" />
      <stop
         style="stop-color:#404040;stop-opacity:1"
         offset="1"
         id="stop14053" />
    </linearGradient>
    <linearGradient
       id="linearGradient14036">
      <stop
         style="stop-color:#000000;stop-opacity:0.50196081"
         offset="0"
         id="stop14038" />
      <stop
         style="stop-color:#000000;stop-opacity:0"
         offset="1"
         id="stop14040" />
    </linearGradient>
    <linearGradient
       id="linearGradient13059">
      <stop
         style="stop-color:#000000;stop-opacity:0.50196081"
         offset="0"
         id="stop13061" />
      <stop
         style="stop-color:#000000;stop-opacity:0"
         offset="1"
         id="stop13063" />
    </linearGradient>
    <linearGradient
       id="linearGradient12082">
      <stop
         style="stop-color:#000000;stop-opacity:0.50196081"
         offset="0"
         id="stop12084" />
      <stop
         style="stop-color:#000000;stop-opacity:0"
         offset="1"
         id="stop12086" />
    </linearGradient>
    <linearGradient
       id="linearGradient12058">
      <stop
         style="stop-color:#000000;stop-opacity:0.50196081"
         offset="0"
         id="stop12060" />
      <stop
         style="stop-color:#000000;stop-opacity:0"
         offset="1"
         id="stop12062" />
    </linearGradient>
    <linearGradient
       id="linearGradient10108">
      <stop
         style="stop-color:#000000;stop-opacity:0.50196081"
         offset="0"
         id="stop10110" />
      <stop
         style="stop-color:#ffffff;stop-opacity:0"
         offset="1"
         id="stop10112" />
    </linearGradient>
    <linearGradient
       id="linearGradient8038">
      <stop
         style="stop-color:#ff0000;stop-opacity:1"
         offset="0"
         id="stop8040" />
      <stop
         style="stop-color:#c00000;stop-opacity:1"
         offset="1"
         id="stop8042" />
    </linearGradient>
    <linearGradient
       id="linearGradient7053">
      <stop
         style="stop-color:#ffffff;stop-opacity:1"
         offset="0"
         id="stop7055" />
      <stop
         style="stop-color:#ffffff;stop-opacity:0"
         offset="1"
         id="stop7057" />
    </linearGradient>
    <linearGradient
       x1="423.16599"
       y1="623.01343"
       x2="413.59689"
       y2="639.58759"
       id="linearGradient7059"
       xlink:href="#linearGradient7053"
       gradientUnits="userSpaceOnUse"
       gradientTransform="matrix(1.632043,0,0,1.632043,-289.13231,-505.70935)" />
    <linearGradient
       x1="395.26282"
       y1="646.20868"
       x2="395.26282"
       y2="670.38055"
       id="linearGradient8044"
       xlink:href="#linearGradient8038"
       gradientUnits="userSpaceOnUse"
       gradientTransform="matrix(1.632043,0,0,1.632043,-289.13231,-505.70935)" />
    <linearGradient
       x1="365.53217"
       y1="630.9007"
       x2="365.53217"
       y2="632.00916"
       id="linearGradient12064"
       xlink:href="#linearGradient12058"
       gradientUnits="userSpaceOnUse"
       gradientTransform="matrix(1.632043,0,0,1.632043,-289.13231,-505.70936)" />
    <linearGradient
       x1="387.01151"
       y1="638.50104"
       x2="387.01151"
       y2="639.5943"
       id="linearGradient12088"
       xlink:href="#linearGradient12082"
       gradientUnits="userSpaceOnUse"
       gradientTransform="matrix(1.632043,0,0,1.632043,-289.13231,-505.70936)" />
    <linearGradient
       x1="403.69189"
       y1="630.9007"
       x2="403.69189"
       y2="642.89679"
       id="linearGradient13065"
       xlink:href="#linearGradient13059"
       gradientUnits="userSpaceOnUse"
       gradientTransform="matrix(1.632043,0,0,1.632043,-289.13231,-505.70936)" />
    <linearGradient
       x1="419.64102"
       y1="637.98547"
       x2="419.64102"
       y2="642.13934"
       id="linearGradient14042"
       xlink:href="#linearGradient14036"
       gradientUnits="userSpaceOnUse"
       gradientTransform="matrix(1.632043,0,0,1.632043,-289.13231,-505.70936)" />
    <linearGradient
       x1="205.41145"
       y1="646.99188"
       x2="205.41145"
       y2="615.11768"
       id="linearGradient14055"
       xlink:href="#linearGradient14049"
       gradientUnits="userSpaceOnUse" />
    <linearGradient
       x1="205.41145"
       y1="646.99188"
       x2="205.41145"
       y2="615.11768"
       id="linearGradient14057"
       xlink:href="#linearGradient14049"
       gradientUnits="userSpaceOnUse" />
    <linearGradient
       x1="205.41145"
       y1="646.99188"
       x2="205.41145"
       y2="615.11768"
       id="linearGradient14059"
       xlink:href="#linearGradient14049"
       gradientUnits="userSpaceOnUse" />
    <linearGradient
       x1="205.41145"
       y1="646.99188"
       x2="205.41145"
       y2="615.11768"
       id="linearGradient14061"
       xlink:href="#linearGradient14049"
       gradientUnits="userSpaceOnUse" />
  </defs>
  <g
     transform="translate(-214.73264,-509.48147)"
     id="layer1">
    <path
       d="M 355.92809,509.48147 C 355.92484,509.48144 308.47701,509.5523 302.83569,515.19362 C 297.18406,520.8453 297.17474,548.74634 297.17454,548.90551 C 297.17454,548.90551 297.17454,548.95605 297.17454,548.95651 C 297.17474,549.11568 297.18406,576.96578 302.83569,582.6174 C 308.47701,588.25872 355.92484,588.38055 355.92809,588.38055 C 355.93132,588.38055 403.37917,588.25872 409.02049,582.6174 C 414.68827,576.94969 414.73264,548.9061 414.73264,548.90551 C 414.73245,548.7464 414.67217,520.8453 409.02049,515.19362 C 403.37917,509.5523 355.93132,509.48144 355.92809,509.48147 z "
       style="opacity:1;fill:url(#linearGradient8044);fill-opacity:1;fill-rule:evenodd;stroke:none;stroke-width:1px;stroke-linecap:butt;stroke-linejoin:miter;stroke-opacity:1"
       id="path3144" />
    <path
       d="M 355.92917,511.85627 C 355.92603,511.85624 310.45449,511.92283 305.04817,517.22455 C 299.63193,522.53602 299.62301,548.75745 299.6228,548.90704 C 299.6228,548.90704 299.6228,548.95455 299.6228,548.95498 C 299.62301,549.10457 299.63193,575.27813 305.04817,580.58952 C 310.45449,585.89126 355.92603,586.00575 355.92917,586.00575 C 355.93225,586.00575 401.4038,585.89126 406.81013,580.58952 C 412.24185,575.263 412.28438,548.90758 412.28438,548.90704 C 412.28419,548.75752 412.22643,522.53602 406.81013,517.22455 C 401.4038,511.92283 355.93225,511.85624 355.92917,511.85627 z "
       style="opacity:1;fill:url(#linearGradient7059);fill-opacity:1;fill-rule:evenodd;stroke:none;stroke-width:1px;stroke-linecap:butt;stroke-linejoin:miter;stroke-opacity:1"
       id="path6082" />
    <path
       d="M 336.16691,574.98903 C 334.92058,574.44599 333.58576,572.78034 333.03965,571.0867 C 332.61857,569.78091 332.54606,567.63062 332.43565,553.18128 L 332.31019,536.75986 L 336.00311,536.75986 L 339.69605,536.75986 L 339.70294,550.78504 C 339.7101,565.35187 339.81245,566.83443 340.89004,567.98171 C 341.70165,568.84581 343.32927,568.84581 344.13873,567.98171 C 345.44985,566.58205 345.46151,566.4445 345.55768,551.20788 L 345.64886,536.75986 L 349.15643,536.75986 L 352.66404,536.75986 L 352.66404,555.64802 L 352.66404,574.53616 L 349.28107,574.53616 L 345.89811,574.53616 L 345.89194,572.21038 L 345.88574,569.88459 L 345.31394,571.14521 C 343.88045,574.30537 342.28134,575.3881 339.07297,575.37088 C 337.94267,575.36481 336.63494,575.19297 336.16691,574.98903 z "
       style="fill:#ffffff;fill-opacity:1;stroke:url(#linearGradient12088);stroke-width:0.8160215;stroke-miterlimit:4;stroke-dasharray:none;stroke-opacity:1"
       id="path9122" />
    <path
       d="M 369.99208,575.00158 C 368.88733,574.50172 367.45056,573.05793 366.76309,571.75682 L 366.22075,570.73035 L 366.20831,572.63328 L 366.19581,574.53616 L 362.81288,574.53616 L 359.42993,574.53616 L 359.42993,549.44596 L 359.42993,524.35573 L 362.95382,524.35573 L 366.47773,524.35573 L 366.47773,532.16352 L 366.47773,539.9713 L 367.28995,538.69057 C 367.73669,537.98616 368.52955,537.10501 369.05192,536.73246 C 369.88875,536.13564 370.30874,536.05511 372.58505,536.05511 C 375.00191,536.05511 375.24627,536.1098 376.37547,536.90343 C 377.72951,537.85508 378.72879,539.56265 379.38262,542.04195 C 379.92818,544.11073 380.22678,563.83568 379.75809,566.84351 C 379.1378,570.82404 378.01776,573.13415 375.97327,574.6497 C 374.97328,575.39097 371.32679,575.60549 369.99208,575.00158 z M 370.83635,568.44026 C 371.0882,568.34363 371.57431,567.74103 371.91656,567.10119 C 372.51621,565.98017 372.54217,565.5993 372.63009,556.63472 C 372.68029,551.518 372.63891,546.66145 372.53819,545.84236 C 372.28479,543.78195 371.44097,542.83382 369.86068,542.83382 C 368.44787,542.83382 367.55393,543.68442 366.98074,545.57413 C 366.47404,547.24463 366.4755,564.02487 366.98246,565.71358 C 367.67759,568.02906 369.16518,569.08154 370.83635,568.44026 z "
       style="fill:#ffffff;fill-opacity:1;stroke:url(#linearGradient13065);stroke-width:0.8160215;stroke-miterlimit:4;stroke-dasharray:none;stroke-opacity:1"
       id="path9120" />
    <path
       d="M 392.09761,574.91215 C 388.85038,573.82803 386.70349,571.03903 385.73189,566.6426 C 385.02559,563.44674 385.0102,546.41602 385.71133,543.88251 C 386.79179,539.97822 389.09795,537.18036 391.92841,536.33981 C 393.88336,535.75926 398.14426,535.78279 400.00711,536.38439 C 401.75493,536.94892 403.77432,538.65091 404.59073,540.24764 C 405.81939,542.65075 406.01045,543.95822 406.15098,550.92598 L 406.28605,557.62142 L 399.31437,557.62142 L 392.34268,557.62142 L 392.47384,561.63868 C 392.63151,566.46874 392.98293,567.56572 394.58726,568.23605 C 397.19967,569.32759 398.89768,567.51028 398.89768,563.6228 L 398.89768,561.56817 L 402.56255,561.56817 L 406.2274,561.56817 L 406.22252,563.61206 C 406.20904,569.23975 404.00653,573.46252 400.37628,574.82079 C 398.49621,575.5242 394.0769,575.57298 392.09761,574.91215 z M 399.12246,547.96591 C 398.9605,544.39443 398.5306,543.40991 396.92263,542.92815 C 396.0486,542.66631 395.5447,542.66631 394.67064,542.92815 C 393.0627,543.40991 392.63277,544.39443 392.47081,547.96591 L 392.3398,550.85551 L 395.79665,550.85551 L 399.2535,550.85551 L 399.12246,547.96591 z "
       style="fill:#ffffff;fill-opacity:1;stroke:url(#linearGradient14042);stroke-width:0.8160215;stroke-miterlimit:4;stroke-dasharray:none;stroke-opacity:1"
       id="path9116" />
    <path
       d="M 316.57922,553.11083 L 316.57922,531.68545 L 312.20958,531.68545 L 307.83993,531.68545 L 307.83993,528.0206 L 307.83993,524.35573 L 320.38505,524.35573 L 332.93016,524.35573 L 332.93016,528.0206 L 332.93016,531.68545 L 328.56051,531.68545 L 324.19086,531.68545 L 324.19086,553.11083 L 324.19086,574.53616 L 320.38505,574.53616 L 316.57922,574.53616 L 316.57922,553.11083 z "
       style="fill:#ffffff;fill-opacity:1;stroke:url(#linearGradient12064);stroke-width:0.8160215;stroke-miterlimit:4;stroke-dasharray:none;stroke-opacity:1"
       id="path9112" />
    <g
       transform="matrix(1.632043,0,0,1.632043,-80.520336,-479.79158)"
       style="fill:url(#linearGradient14055);fill-opacity:1"
       id="g14044">
      <path
         d="M 202.78524,646.89914 C 200.19247,646.62669 198.75588,645.15249 198.039,642.02868 C 197.52059,639.76961 197.57779,629.4768 198.12151,627.18274 C 198.50333,625.57176 199.1006,624.45568 200.04841,623.58202 C 201.1579,622.55931 202.28432,622.2582 204.71593,622.33428 C 206.41169,622.38733 206.71785,622.44887 207.64346,622.92277 C 209.41533,623.82994 210.26454,625.39459 210.70541,628.56436 C 211.01141,630.7645 210.95973,639.6553 210.62987,641.55668 C 210.2976,643.47198 209.53537,645.12219 208.6404,645.86377 C 207.53301,646.78139 205.34559,647.16819 202.78524,646.89914 z M 205.32729,642.45735 C 206.36832,642.02238 206.40678,641.74914 206.40678,634.78804 C 206.40678,629.9902 206.35176,628.39122 206.16889,627.87395 C 205.57869,626.2045 203.31927,626.0905 202.52533,627.6901 C 202.21664,628.31205 202.18245,628.86956 202.13065,634.12732 C 202.06971,640.31196 202.1778,641.5075 202.85423,642.13094 C 203.48821,642.71525 204.41673,642.8378 205.32729,642.45735 z "
         style="fill:url(#linearGradient14057);fill-opacity:1"
         id="path9110" />
      <path
         d="M 216.00039,646.67385 C 215.22316,646.33519 214.39072,645.29643 214.05014,644.24024 C 213.78755,643.42591 213.74231,642.08493 213.67347,633.0739 L 213.59524,622.83305 L 215.89825,622.83305 L 218.20126,622.83305 L 218.20557,631.57953 C 218.21003,640.66383 218.27386,641.58839 218.94586,642.30387 C 219.45202,642.84274 220.46706,642.84274 220.97185,642.30387 C 221.78952,641.431 221.79677,641.34523 221.85674,631.84325 L 221.91361,622.83305 L 224.10104,622.83305 L 226.28847,622.83305 L 226.28847,634.61223 L 226.28847,646.39142 L 224.17877,646.39142 L 222.06906,646.39142 L 222.0652,644.94099 L 222.06134,643.49058 L 221.70474,644.27671 C 220.81078,646.24749 219.81354,646.92271 217.8127,646.91197 C 217.10781,646.90818 216.29228,646.80102 216.00039,646.67385 z "
         style="fill:url(#linearGradient14059);fill-opacity:1"
         id="path9106" />
      <path
         d="M 187.3766,639.75987 L 187.3766,633.12833 L 184.18847,624.33265 C 182.43501,619.49503 180.96213,615.43597 180.9154,615.31253 C 180.84832,615.13528 181.3945,615.0983 183.51289,615.13672 L 186.19532,615.18536 L 187.75063,620.0794 C 188.60605,622.77112 189.41631,625.50056 189.55119,626.14481 C 189.80785,627.37068 189.86076,627.35026 190.18513,625.90019 C 190.29445,625.41148 191.0818,622.80072 191.93479,620.0985 L 193.4857,615.18536 L 196.16554,615.13672 C 198.67179,615.09122 198.8376,615.10832 198.72522,615.40043 C 198.65912,615.57223 197.14669,619.67569 195.36424,624.51924 L 192.12343,633.3257 L 192.12343,639.85856 L 192.12343,646.39142 L 189.75001,646.39142 L 187.3766,646.39142 L 187.3766,639.75987 z "
         style="fill:url(#linearGradient14061);fill-opacity:1"
         id="path9047" />
    </g>
  </g>
</svg>
